<svg version="1.2" xmlns="http://www.w3.org/2000/svg" width="542" height="178"><style>.s2{fill:#000}</style><path d="M92 3.3a86.1 86.1 0 0 0-60.6 25.1A86.1 86.1 0 0 0 6.3 89c0 22.7 9.1 44.5 25.1 60.6A86.1 86.1 0 0 0 92 174.7c22.7 0 44.5-9.1 60.6-25.1A86.1 86.1 0 0 0 177.7 89c0-22.7-9.1-44.5-25.1-60.6A86.1 86.1 0 0 0 92 3.3z" style="fill:#f3a738"/><path d="M119.4 89.8h427v79.5h-427z" style="fill:none"/><path fill-rule="evenodd" class="s2" d="M127.8 124.5h-6.1q.3 0 .6-.5.3-.6.3-1.8v-19q0-1.3-.3-1.8t-.6-.6h6.2q-.1.1.3.7.3.6 1.2 1.8.3.3 1.2 1.4.9 1.1 2.2 2.6 1.4 1.6 2.9 3.4l3.2 3.7q1.6 1.9 3 3.6h.1v-14.8q0-1.3-.2-1.8-.3-.5-.6-.6h6.1q-.3 0-.6.6-.2.5-.2 1.8v19q0 1.2.2 1.8.3.5.6.5h-5.2q.1-.1-.3-.7t-1.3-1.7q-.6-.8-1.7-2.1l-2.5-3.2q-1.5-1.7-3.1-3.7-1.6-1.9-3.1-3.8-1.6-2-3-3.6h-.1v16.5q0 1.2.3 1.8.3.5.5.5zm31.7.4q-3.9 0-6.2-1.2-2.2-1.3-3.1-3.5-.9-2.2-.9-4.9 0-2.8.9-4.9 1-2.2 3.2-3.5 2.2-1.3 6.1-1.3 3.9 0 6.1 1.3 2.3 1.3 3.2 3.5.9 2.1.9 4.9 0 2.7-.9 4.9t-3.1 3.5q-2.2 1.2-6.2 1.2zm0-2.8q2.5 0 3.8-.8 1.4-.8 1.9-2.3.5-1.5.5-3.7t-.6-3.7q-.5-1.5-1.8-2.4-1.3-.8-3.8-.8-2.4 0-3.7.9-1.4.8-1.9 2.4-.6 1.5-.6 3.7 0 2.1.6 3.6.5 1.5 1.8 2.3 1.4.8 3.8.8zm11.7 2.4q.3 0 .5-.5.3-.6.3-1.8v-13.4q0-1.3-.3-1.8-.2-.5-.5-.6 1.7 0 3-.2 1.3-.3 1.8-.6v2l-.1.7.1.1q.6-.8 1.4-1.4.9-.7 2-1 1.1-.4 2.5-.4 1.9 0 3.2.6 1.4.5 2 1.1l-.8 3.3v1.2q-.5-.7-1.5-1.4-.9-.7-2.2-1.1-1.2-.5-2.6-.5-1.6 0-2.8 1.3-1.2 1.2-1.2 4.1v8q0 1.2.3 1.8.2.5.5.5z"/><path fill-rule="evenodd" class="s2" d="M195.7 124.9q-2.7 0-4-1.1-1.2-1.2-1.2-3.9v-11.1H187V106q1.8 0 2.8-.4 1-.5 1.5-1.6.4-1.2.4-3.2h2.8v5.2h7.6q-.3.4-.5 1.2-.3.8-.3 1.6h-6.8v10.5q0 1.9.7 2.3.7.5 1.7.5t1.9-.4q.8-.4 1.5-1 .6-.6 1-1.2v1.3l.4 2.2q-.4.4-1.3.9-.8.4-2 .7-1.2.3-2.7.3zm6.9-.4q.2 0 .5-.5.3-.6.3-1.8V99.6q0-1.2-.3-1.8-.3-.5-.5-.6h4.8V108l-.1.6h.1q.6-.7 1.5-1.4t2.3-1.1q1.4-.5 3.3-.5 3.6 0 5.6 2.1 2 2.1 2 6.6v7.9q0 1.2.2 1.8.3.5.6.5h-5.7q.3 0 .6-.5.2-.6.2-1.8v-7.8q0-2.3-.6-3.6-.6-1.3-1.6-1.9-1.1-.5-2.4-.5-1.5 0-2.9.6-1.4.7-2.2 2-.9 1.4-.9 3.8v7.4q0 1.2.2 1.8.3.5.6.5zm31.9.4q-3.2 0-5.2-.7t-3.1-2q-1.2-1.3-1.6-3.1-.5-1.7-.5-3.8 0-4.4 2.5-7.1 2.6-2.6 7.6-2.6 2.9 0 4.7.8 1.8.8 2.8 2.1.9 1.3 1.2 2.8.4 1.6.4 3v1.9q0-.1-1.1-.3-1.1-.1-3.7-.1h-10.4q0 2.9 1.8 4.6 1.7 1.7 5.1 1.7 3 0 4.9-.7 2-.7 2.6-1.5v.8l.4 2.6q-.9.6-3.1 1.1-2.2.5-5.3.5zm-4.8-11.7h9.6q0-1-.4-2.2-.5-1.1-1.6-1.8-1.1-.8-3.1-.8-1.7 0-2.9.6-1.3.5-2 1.5-.7.9-.7 1.9 0 .4.2.6.3.2.9.2zm22.8 11.7q-4.3 0-6.1-1.5-1.7-1.6-1.7-4.2 0-1.9.9-3.2 1-1.4 2.8-2.1 1.9-.7 4.8-.7 2.1 0 3.6.3t2.5.7q.9.4 1.3.7 0-2.4-.5-3.8-.6-1.4-1.9-2.1-1.2-.6-3.4-.6-2.4 0-4.2.5-1.8.6-2.9 1.2-1.1.6-1.4.9v-.8l-.4-3 1.5-.5q1.2-.4 3.1-.7 2-.4 4.6-.4 3.3 0 5.4 1 2.1.9 3.2 2.8 1 1.9 1 4.8v8q0 1.1.2 1.6.3.5.5.7h-4.8v-1.2l.1-.7-.1-.1q-.6.6-1.5 1.1-.8.4-1.9.7-1 .3-2.2.5-1.2.1-2.5.1zm1.3-2.8q2.1 0 3.7-.4 1.5-.5 2.3-1.2.8-.7.8-1.7 0-1.2-1.5-2-1.6-.8-4.9-.8-3 0-4.3.8-1.2.8-1.2 2.4 0 1.5 1.2 2.2 1.2.7 3.9.7zm23.6 2.8q-3.8 0-6.3-.4t-3.4-.8v-.8l-.8-3.4q1 .9 3.6 1.8t6.3.9q2.4 0 3.7-.4 1.2-.3 1.6-.9.4-.6.4-1.3 0-.8-.6-1.3t-2.1-.8q-1.6-.4-4.6-.7-3.3-.4-5.1-1.2-1.8-.7-2.5-1.9t-.7-2.8q0-1.2.7-2.5.7-1.2 2.5-2t5.2-.8q3.7 0 6.2.4t3.4.8v.8l.8 3q-1-.7-3.6-1.4-2.6-.8-6.2-.8-3 0-4 .6-1 .7-1 1.7 0 .6.3 1.1.2.4.9.8.8.3 2.3.6 1.5.3 3.9.6 3.4.3 5.1 1.1 1.8.7 2.4 1.9.7 1.1.7 2.6 0 1.6-.9 2.9-.9 1.2-2.9 1.9t-5.3.7zm18.2 0q-2.7 0-3.9-1.1-1.3-1.2-1.3-3.9v-11.1h-3.5V106q1.8 0 2.8-.4 1.1-.5 1.5-1.6.4-1.2.4-3.2h2.9v5.2h7.5q-.3.4-.5 1.2-.3.8-.3 1.6h-6.7v10.5q0 1.9.6 2.3.7.5 1.7.5t1.9-.4q.8-.4 1.5-1 .6-.6 1-1.2v1.3l.4 2.2q-.4.4-1.2.9-.9.4-2.1.7-1.1.3-2.7.3zm-160.9 34.9q-6.8 0-10.1-3-3.4-2.9-3.4-9.3 0-3.7 1.4-6.4 1.3-2.8 4.3-4.3 3.1-1.5 7.8-1.5 3.8 0 6.3.4 2.5.3 3.3.7v.8l.8 3.6q-.7-.5-2.2-1.1-1.5-.5-3.5-.9-2.1-.4-4.6-.4-3.5 0-5.5 1.2t-2.9 3.2q-.8 2.1-.8 4.7 0 2.7.9 4.7.8 2 3 3.2 2.3 1.2 6.5 1.2 3.4 0 5.6-.8 2.3-.9 3.1-1.6v1.2l.4 2.4q-.6.6-3.2 1.3-2.6.7-7.2.7zm12.1-.4q.3 0 .5-.6.3-.5.3-1.8v-22.5q0-1.3-.3-1.8-.2-.6-.5-.6h4.8v10.8l-.1.5.1.1q.6-.8 1.5-1.5 1-.6 2.4-1.1 1.3-.4 3.2-.4 3.7 0 5.6 2.1 2 2.1 2 6.5v7.9q0 1.3.2 1.8.3.6.6.6h-5.6q.2 0 .5-.6.3-.5.3-1.8v-7.8q0-2.3-.6-3.6-.6-1.3-1.7-1.8-1-.6-2.4-.6-1.5 0-2.9.7-1.3.6-2.2 2-.9 1.4-.9 3.7v7.4q0 1.3.3 1.8.2.6.5.6zm29.5.4q-4.3 0-6-1.6-1.8-1.6-1.8-4.2 0-1.9 1-3.2.9-1.3 2.8-2 1.8-.7 4.7-.7 2.1 0 3.6.3t2.5.7q1 .4 1.4.6 0-2.3-.6-3.7-.6-1.4-1.9-2.1-1.2-.7-3.4-.7-2.3 0-4.2.6-1.8.5-2.9 1.1-1.1.6-1.4.9v-.8l-.4-2.9q.4-.2 1.5-.6 1.2-.4 3.2-.7 1.9-.3 4.5-.3 3.3 0 5.5.9 2.1.9 3.1 2.9 1 1.9 1 4.8v7.9q0 1.1.2 1.6.3.5.6.8h-4.8v-2q-.7.6-1.5 1-.9.5-1.9.8-1.1.3-2.3.4-1.2.2-2.5.2zm1.3-2.8q2.2 0 3.7-.5 1.5-.4 2.3-1.1.9-.8.9-1.7 0-1.2-1.6-2-1.6-.9-4.9-.9-3 0-4.2.8-1.3.8-1.3 2.4 0 1.5 1.2 2.3 1.2.7 3.9.7zm13.3 2.4q.3 0 .6-.6.2-.5.2-1.8v-13.4q0-1.2-.2-1.8-.3-.5-.6-.5 1.8 0 3.1-.3 1.3-.2 1.8-.5v2.4l-.1.5.1.1q.6-.8 1.3-1.4.7-.7 1.9-1.2 1.2-.4 3.1-.4 3.6 0 5.6 2.1.6.6 1 1.5.5-.7 1.2-1.5.9-.9 2.4-1.5 1.4-.6 3.6-.6 2.4 0 4.1.9 1.7.9 2.6 2.8.9 1.9.9 4.9v7.9q0 1.3.2 1.8.3.6.6.6h-5.6q.2 0 .5-.6.3-.5.3-1.8v-7.7q0-2.4-.6-3.7-.6-1.3-1.7-1.8-1-.6-2.4-.6-2.3 0-3.7 1.5-1.5 1.4-1.5 4.9v7.4q0 1.3.3 1.8.3.6.5.6h-5.6q.3 0 .6-.6.2-.5.2-1.8v-7.7q0-2.4-.6-3.7-.6-1.3-1.6-1.8-1.1-.6-2.5-.6t-2.6.7q-1.2.6-1.9 2-.6 1.4-.6 3.7v7.4q0 1.3.2 1.8.3.6.6.6zm45.9.4q-2.1 0-3.6-.5-1.5-.6-2.5-1.5l-.1.1.1.7v.8h-4.9q.3 0 .6-.6.2-.5.2-1.8v-22.5q0-1.3-.2-1.8-.3-.6-.6-.6h4.9v9.6l-.1.7.1.1q.5-.5 1.4-1 .9-.4 2.1-.7 1.2-.3 2.6-.3 3.7 0 5.9 1.3 2.1 1.2 3 3.4.9 2.2.9 5 0 2.7-.9 4.9-.9 2.1-3 3.4-2.1 1.3-5.9 1.3zm-.4-2.8q2.5 0 3.8-.8 1.4-.8 1.9-2.3.5-1.6.5-3.7 0-2.2-.5-3.7-.6-1.6-1.9-2.4-1.3-.9-3.8-.9-2.3 0-3.6 1-1.2.9-1.7 2.5-.4 1.6-.4 3.5 0 3.1 1.2 4.9 1.2 1.9 4.5 1.9zm21.6 2.8q-3.1 0-5.1-.8-2-.7-3.2-2-1.1-1.3-1.6-3-.4-1.8-.4-3.8 0-4.5 2.5-7.1 2.6-2.6 7.6-2.6 2.9 0 4.7.8 1.8.8 2.7 2.1 1 1.3 1.3 2.8.3 1.5.3 3v1.8q0-.1-1-.2-1.1-.2-3.7-.2h-10.4q0 3 1.7 4.7 1.8 1.7 5.2 1.7 3 0 4.9-.8 1.9-.7 2.6-1.4v.8l.4 2.6q-.9.5-3.1 1-2.2.6-5.4.6zm-4.7-11.8h9.6q0-1-.4-2.1-.5-1.1-1.6-1.9-1.1-.8-3.1-.8-1.7 0-3 .6-1.2.6-1.9 1.5t-.7 1.9q0 .4.2.6.3.2.9.2zm15.2 11.4q.3 0 .5-.6.3-.5.3-1.8v-13.4q0-1.2-.3-1.8-.2-.5-.5-.5 1.7 0 3-.3 1.3-.2 1.8-.5v2l-.1.6.1.1q.6-.8 1.5-1.4.8-.6 1.9-1 1.1-.3 2.5-.3 1.9 0 3.3.5 1.3.5 1.9 1.1l-.8 3.3v1.2q-.5-.6-1.4-1.3-1-.7-2.2-1.2-1.3-.5-2.6-.5-1.6 0-2.8 1.3-1.3 1.3-1.3 4.2v7.9q0 1.3.3 1.8.2.6.5.6zm38.6.4h-1.2q-6.8 0-9.8-3.3-3.1-3.2-3.1-9.1 0-3.8 1.4-6.5 1.3-2.7 4.1-4.2 2.8-1.4 7.4-1.4h1.2q4.5 0 7.3 1.4 2.8 1.5 4.1 4.2 1.3 2.7 1.3 6.5 0 5.9-3 9.1-3 3.3-9.7 3.3zm-.8-3.2h.4q3 0 4.9-.9 1.9-.9 2.8-2.9.9-2 .9-5.4 0-3.4-.9-5.3-1-2-2.9-2.8-1.9-.9-4.8-.9h-.4q-3 0-4.9.9-2 .9-3 2.8-.9 2-.9 5.3 0 3.4.9 5.4 1 2 3 2.9 2 .9 4.9.9zm16.3 2.8q.2 0 .5-.6.3-.5.3-1.8v-13.4h-3.6v-2.7h4v-.1q-.1-.2-.5-1.3-.3-1.2-.3-2.7 0-3.1 1.7-4.5 1.8-1.4 5-1.4 2.1 0 3.9.3 1.7.2 2.5.5v.8l.8 3.1q-.1-.2-.9-.6-1-.5-2.6-.9-1.5-.4-3.2-.4-1.7 0-2.4.7-.8.8-.8 2.8v2.5q0 .9.2 1 .1.2 1 .2h6.7q-.2.4-.5 1.1-.3.8-.3 1.6h-6.7V157q0 1.3.3 1.8.2.6.5.6zm14.3-23.8v.1zm20.2 24.1q-6.8 0-10.2-2.9-3.3-3-3.3-9.3 0-3.7 1.3-6.5 1.4-2.7 4.4-4.3 3-1.5 7.8-1.5 3.8 0 6.3.4 2.4.4 3.3.8v.8l.8 3.5q-.7-.5-2.2-1-1.5-.6-3.6-1-2-.3-4.5-.3-3.5 0-5.5 1.1-2.1 1.2-2.9 3.3-.8 2-.8 4.7 0 2.6.8 4.6.9 2.1 3.1 3.2 2.3 1.2 6.4 1.2 3.4 0 5.7-.8 2.3-.8 3.1-1.6v1.2l.4 2.4q-.7.7-3.3 1.4-2.5.6-7.1.6zm21.8 0q-3.9 0-6.2-1.2-2.2-1.3-3.1-3.5-.9-2.2-.9-4.9 0-2.8 1-4.9.9-2.2 3.1-3.5 2.2-1.3 6.1-1.3 3.9 0 6.2 1.3 2.2 1.3 3.1 3.5.9 2.1.9 4.9 0 2.7-.9 4.9-.8 2.2-3.1 3.5-2.2 1.2-6.2 1.2zm0-2.8q2.5 0 3.8-.8 1.4-.8 1.9-2.3.5-1.5.5-3.7t-.5-3.7q-.6-1.5-1.9-2.4-1.3-.8-3.8-.8-2.4 0-3.7.8-1.4.9-1.9 2.5-.5 1.5-.5 3.6t.5 3.7q.5 1.5 1.8 2.3 1.4.8 3.8.8zm11.7 2.4q.3 0 .5-.5.3-.6.3-1.9v-13.3q0-1.3-.3-1.8-.2-.5-.5-.6 1.7 0 3-.2 1.3-.3 1.8-.6v2.4l-.1.6h.1q.6-.7 1.4-1.4.7-.7 1.9-1.1 1.1-.5 3-.5 3.7 0 5.6 2.1.7.7 1.1 1.6.4-.7 1.2-1.5.9-.9 2.3-1.5 1.5-.7 3.6-.7 2.5 0 4.2 1 1.7.9 2.6 2.8.8 1.9.8 4.9v7.8q0 1.3.3 1.9.3.5.5.5h-5.6q.3 0 .5-.5.3-.6.3-1.9v-7.7q0-2.3-.6-3.6-.6-1.3-1.6-1.9-1.1-.5-2.5-.5-2.3 0-3.7 1.4-1.4 1.5-1.4 4.9v7.4q0 1.3.3 1.9.2.5.5.5h-5.6q.3 0 .5-.5.3-.6.3-1.9v-7.7q0-2.3-.6-3.6-.6-1.3-1.7-1.9-1-.5-2.4-.5-1.5 0-2.6.6-1.2.7-1.9 2-.7 1.4-.7 3.8v7.3q0 1.3.3 1.9.2.5.5.5zm35 0q.3 0 .5-.5.3-.6.3-1.9v-13.3q0-1.3-.3-1.8-.2-.5-.5-.6 1.7 0 3-.2 1.3-.3 1.8-.6v2.4l-.1.6h.1q.6-.7 1.3-1.4.8-.7 2-1.1 1.1-.5 3-.5 3.7 0 5.6 2.1.7.7 1.1 1.6.4-.8 1.2-1.5.9-.9 2.3-1.5 1.5-.7 3.6-.7 2.5 0 4.2 1 1.7.9 2.6 2.8.8 1.9.8 4.9v7.8q0 1.3.3 1.9.2.5.5.5h-5.6q.3 0 .5-.5.3-.6.3-1.9v-7.7q0-2.3-.6-3.6-.6-1.3-1.6-1.9-1.1-.5-2.5-.5-2.3 0-3.7 1.4-1.4 1.5-1.4 4.9v7.4q0 1.3.2 1.9.3.5.6.5h-5.6q.2 0 .5-.5.3-.6.3-1.9v-7.7q0-2.3-.6-3.6-.6-1.3-1.7-1.9-1-.5-2.4-.5-1.5 0-2.7.6-1.1.7-1.8 2-.7 1.4-.7 3.8v7.3q0 1.3.3 1.9.2.5.5.5zm44.9.4q-3.1 0-5.1-.7-2-.7-3.2-2.1-1.1-1.3-1.6-3-.4-1.7-.4-3.8 0-4.5 2.5-7.1 2.6-2.6 7.6-2.6 2.9 0 4.7.8 1.8.8 2.7 2.1 1 1.3 1.3 2.8.3 1.6.3 3v1.9q0-.1-1-.3-1.1-.1-3.7-.1h-10.4q0 2.9 1.7 4.6 1.8 1.7 5.2 1.7 3 0 4.9-.7 1.9-.8 2.6-1.5v.8l.4 2.6q-.9.6-3.1 1.1-2.2.5-5.4.5zm-4.7-11.7h9.6q0-1.1-.4-2.2-.5-1.1-1.6-1.8-1.1-.8-3.1-.8-1.7 0-3 .6-1.2.5-1.9 1.5-.7.9-.7 1.9 0 .4.2.6.3.2.9.2zm15.2 11.3q.3 0 .5-.5.3-.6.3-1.9v-13.3q0-1.3-.3-1.8-.2-.5-.5-.6 1.8 0 3-.2 1.3-.3 1.8-.6v2.7q.6-.7 1.5-1.3.8-.7 1.9-1 1.1-.4 2.6-.4 1.8 0 3.2.6 1.4.5 1.9 1l-.7 3.4v1.2q-.6-.7-1.5-1.4-1-.7-2.2-1.1-1.3-.5-2.6-.5-1.6 0-2.8 1.3-1.3 1.2-1.3 4.1v7.9q0 1.3.3 1.9.3.5.5.5zm27.1.4q-4.1 0-6.5-1.2-2.3-1.3-3.3-3.5-.9-2.2-.9-4.9 0-4.8 2.6-7.2 2.6-2.4 7.7-2.4 3.1 0 5.2.4t2.9.7v.8l.8 3.4q-.8-.8-3-1.7-2.3-.9-5.6-.9-1.7 0-3.2.6-1.6.6-2.5 2.1-.9 1.5-.9 4.2t1 4.2q1 1.5 2.7 2.1 1.7.5 4 .5 2.8 0 4.6-.9 1.8-.8 2.5-1.7v.8l.4 2.7q-.8.7-3 1.3-2.2.6-5.5.6zm20.1 0q-3.2 0-5.2-.7t-3.1-2.1q-1.2-1.3-1.6-3-.5-1.7-.5-3.8 0-4.5 2.5-7.1 2.6-2.6 7.6-2.6 2.9 0 4.7.8 1.8.8 2.8 2.1.9 1.3 1.2 2.8.4 1.6.4 3v1.9q0-.1-1.1-.3-1.1-.1-3.7-.1h-10.4q0 2.9 1.8 4.6 1.7 1.7 5.1 1.7 3 0 4.9-.7 2-.8 2.6-1.5v.8l.4 2.6q-.9.6-3.1 1.1-2.2.5-5.3.5zm-4.8-11.7h9.6q0-1.1-.4-2.2-.5-1.1-1.6-1.8-1.1-.8-3.1-.8-1.7 0-2.9.6-1.3.5-2 1.5-.7.9-.7 1.9 0 .4.2.6.3.2.9.2z"/></svg>