<svg version="1.2" xmlns="http://www.w3.org/2000/svg" viewBox="0 0 542 178" width="542" height="178">
	<title>northeast-chamber-of-commerce-high-resolution-logo-transparent-svg</title>
	<style>
		.s0 { fill: #f3a738 } 
		.s1 { fill: none } 
		.s2 { fill: #000000 } 
	</style>
	<g>
		<g>
			<path class="s0" d="m92 3.3c-22.7 0-44.5 9.1-60.6 25.1-16 16.1-25.1 37.9-25.1 60.6 0 22.7 9.1 44.5 25.1 60.6 16.1 16 37.9 25.1 60.6 25.1 22.7 0 44.5-9.1 60.6-25.1 16-16.1 25.1-37.9 25.1-60.6 0-22.7-9.1-44.5-25.1-60.6-16.1-16-37.9-25.1-60.6-25.1z"/>
			<path class="s1" d="m119.4 89.8h427v79.5h-427z"/>
			<path fill-rule="evenodd" class="s2" d="m127.8 124.5h-6.1q0.3 0 0.6-0.5 0.3-0.6 0.3-1.8v-19q0-1.3-0.3-1.8-0.3-0.5-0.6-0.6h6.2q-0.1 0.1 0.3 0.7 0.3 0.6 1.2 1.8 0.3 0.3 1.2 1.4 0.9 1.1 2.2 2.6 1.4 1.6 2.9 3.4l3.2 3.7q1.6 1.9 3 3.6h0.1v-14.8q0-1.3-0.2-1.8-0.3-0.5-0.6-0.6h6.1q-0.3 0-0.6 0.6-0.2 0.5-0.2 1.8v19q0 1.2 0.2 1.8 0.3 0.5 0.6 0.5h-5.2q0.1-0.1-0.3-0.7-0.4-0.6-1.3-1.7-0.6-0.8-1.7-2.1-1.1-1.4-2.5-3.2-1.5-1.7-3.1-3.7-1.6-1.9-3.1-3.8-1.6-2-3-3.6h-0.1v16.5q0 1.2 0.3 1.8 0.3 0.5 0.5 0.5zm31.7 0.4q-3.9 0-6.2-1.2-2.2-1.3-3.1-3.5-0.9-2.2-0.9-4.9 0-2.8 0.9-4.9 1-2.2 3.2-3.5 2.2-1.3 6.1-1.3 3.9 0 6.1 1.3 2.3 1.3 3.2 3.5 0.9 2.1 0.9 4.9 0 2.7-0.9 4.9-0.9 2.2-3.1 3.5-2.2 1.2-6.2 1.2zm0-2.8q2.5 0 3.8-0.8 1.4-0.8 1.9-2.3 0.5-1.5 0.5-3.7 0-2.2-0.6-3.7-0.5-1.5-1.8-2.4-1.3-0.8-3.8-0.8-2.4 0-3.7 0.9-1.4 0.8-1.9 2.4-0.6 1.5-0.6 3.7 0 2.1 0.6 3.6 0.5 1.5 1.8 2.3 1.4 0.8 3.8 0.8zm11.7 2.4q0.3 0 0.5-0.5 0.3-0.6 0.3-1.8v-13.4q0-1.3-0.3-1.8-0.2-0.5-0.5-0.6 1.7 0 3-0.2 1.3-0.3 1.8-0.6v2l-0.1 0.7 0.1 0.1q0.6-0.8 1.4-1.4 0.9-0.7 2-1 1.1-0.4 2.5-0.4 1.9 0 3.2 0.6 1.4 0.5 2 1.1l-0.8 3.3v1.2q-0.5-0.7-1.5-1.4-0.9-0.7-2.2-1.1-1.2-0.5-2.6-0.5-1.6 0-2.8 1.3-1.2 1.2-1.2 4.1v8q0 1.2 0.3 1.8 0.2 0.5 0.5 0.5z"/>
			<path fill-rule="evenodd" class="s2" d="m195.7 124.9q-2.7 0-4-1.1-1.2-1.2-1.2-3.9v-11.1h-3.5v-2.8q1.8 0 2.8-0.4 1-0.5 1.5-1.6 0.4-1.2 0.4-3.2h2.8v5.2h7.6q-0.3 0.4-0.5 1.2-0.3 0.8-0.3 1.6h-6.8v10.5q0 1.9 0.7 2.3 0.7 0.5 1.7 0.5 1 0 1.9-0.4 0.8-0.4 1.5-1 0.6-0.6 1-1.2v1.3l0.4 2.2q-0.4 0.4-1.3 0.9-0.8 0.4-2 0.7-1.2 0.3-2.7 0.3zm6.9-0.4q0.2 0 0.5-0.5 0.3-0.6 0.3-1.8v-22.6q0-1.2-0.3-1.8-0.3-0.5-0.5-0.6h4.8v10.8l-0.1 0.6h0.1q0.6-0.7 1.5-1.4 0.9-0.7 2.3-1.1 1.4-0.5 3.3-0.5 3.6 0 5.6 2.1 2 2.1 2 6.6v7.9q0 1.2 0.2 1.8 0.3 0.5 0.6 0.5h-5.7q0.3 0 0.6-0.5 0.2-0.6 0.2-1.8v-7.8q0-2.3-0.6-3.6-0.6-1.3-1.6-1.9-1.1-0.5-2.4-0.5-1.5 0-2.9 0.6-1.4 0.7-2.2 2-0.9 1.4-0.9 3.8v7.4q0 1.2 0.2 1.8 0.3 0.5 0.6 0.5zm31.9 0.4q-3.2 0-5.2-0.7-2-0.7-3.1-2-1.2-1.3-1.6-3.1-0.5-1.7-0.5-3.8 0-4.4 2.5-7.1 2.6-2.6 7.6-2.6 2.9 0 4.7 0.8 1.8 0.8 2.8 2.1 0.9 1.3 1.2 2.8 0.4 1.6 0.4 3v1.9q0-0.1-1.1-0.3-1.1-0.1-3.7-0.1h-10.4q0 2.9 1.8 4.6 1.7 1.7 5.1 1.7 3 0 4.9-0.7 2-0.7 2.6-1.5v0.8l0.4 2.6q-0.9 0.6-3.1 1.1-2.2 0.5-5.3 0.5zm-4.8-11.7h9.6q0-1-0.4-2.2-0.5-1.1-1.6-1.8-1.1-0.8-3.1-0.8-1.7 0-2.9 0.6-1.3 0.5-2 1.5-0.7 0.9-0.7 1.9 0 0.4 0.2 0.6 0.3 0.2 0.9 0.2zm22.8 11.7q-4.3 0-6.1-1.5-1.7-1.6-1.7-4.2 0-1.9 0.9-3.2 1-1.4 2.8-2.1 1.9-0.7 4.8-0.7 2.1 0 3.6 0.3 1.5 0.3 2.5 0.7 0.9 0.4 1.3 0.7 0-2.4-0.5-3.8-0.6-1.4-1.9-2.1-1.2-0.6-3.4-0.6-2.4 0-4.2 0.5-1.8 0.6-2.9 1.2-1.1 0.6-1.4 0.9v-0.8l-0.4-3q0.3-0.1 1.5-0.5 1.2-0.4 3.1-0.7 2-0.4 4.6-0.4 3.3 0 5.4 1 2.1 0.9 3.2 2.8 1 1.9 1 4.8v8q0 1.1 0.2 1.6 0.3 0.5 0.5 0.7h-4.8v-1.2l0.1-0.7-0.1-0.1q-0.6 0.6-1.5 1.1-0.8 0.4-1.9 0.7-1 0.3-2.2 0.5-1.2 0.1-2.5 0.1zm1.3-2.8q2.1 0 3.7-0.4 1.5-0.5 2.3-1.2 0.8-0.7 0.8-1.7 0-1.2-1.5-2-1.6-0.8-4.9-0.8-3 0-4.3 0.8-1.2 0.8-1.2 2.4 0 1.5 1.2 2.2 1.2 0.7 3.9 0.7zm23.6 2.8q-3.8 0-6.3-0.4-2.5-0.4-3.4-0.8v-0.8l-0.8-3.4q1 0.9 3.6 1.8 2.6 0.9 6.3 0.9 2.4 0 3.7-0.4 1.2-0.3 1.6-0.9 0.4-0.6 0.4-1.3 0-0.8-0.6-1.3-0.6-0.5-2.1-0.8-1.6-0.4-4.6-0.7-3.3-0.4-5.1-1.2-1.8-0.7-2.5-1.9-0.7-1.2-0.7-2.8 0-1.2 0.7-2.5 0.7-1.2 2.5-2 1.8-0.8 5.2-0.8 3.7 0 6.2 0.4 2.5 0.4 3.4 0.8v0.8l0.8 3q-1-0.7-3.6-1.4-2.6-0.8-6.2-0.8-3 0-4 0.6-1 0.7-1 1.7 0 0.6 0.3 1.1 0.2 0.4 0.9 0.8 0.8 0.3 2.3 0.6 1.5 0.3 3.9 0.6 3.4 0.3 5.1 1.1 1.8 0.7 2.4 1.9 0.7 1.1 0.7 2.6 0 1.6-0.9 2.9-0.9 1.2-2.9 1.9-2 0.7-5.3 0.7zm18.2 0q-2.7 0-3.9-1.1-1.3-1.2-1.3-3.9v-11.1h-3.5v-2.8q1.8 0 2.8-0.4 1.1-0.5 1.5-1.6 0.4-1.2 0.4-3.2h2.9v5.2h7.5q-0.3 0.4-0.5 1.2-0.3 0.8-0.3 1.6h-6.7v10.5q0 1.9 0.6 2.3 0.7 0.5 1.7 0.5 1 0 1.9-0.4 0.8-0.4 1.5-1 0.6-0.6 1-1.2v1.3l0.4 2.2q-0.4 0.4-1.2 0.9-0.9 0.4-2.1 0.7-1.1 0.3-2.7 0.3zm-160.9 34.9q-6.8 0-10.1-3-3.4-2.9-3.4-9.3 0-3.7 1.4-6.4 1.3-2.8 4.3-4.3 3.1-1.5 7.8-1.5 3.8 0 6.3 0.4 2.5 0.3 3.3 0.7v0.8l0.8 3.6q-0.7-0.5-2.2-1.1-1.5-0.5-3.5-0.9-2.1-0.4-4.6-0.4-3.5 0-5.5 1.2-2 1.2-2.9 3.2-0.8 2.1-0.8 4.7 0 2.7 0.9 4.7 0.8 2 3 3.2 2.3 1.2 6.5 1.2 3.4 0 5.6-0.8 2.3-0.9 3.1-1.6v1.2l0.4 2.4q-0.6 0.6-3.2 1.3-2.6 0.7-7.2 0.7zm12.1-0.4q0.3 0 0.5-0.6 0.3-0.5 0.3-1.8v-22.5q0-1.3-0.3-1.8-0.2-0.6-0.5-0.6h4.8v10.8l-0.1 0.5 0.1 0.1q0.6-0.8 1.5-1.5 1-0.6 2.4-1.1 1.3-0.4 3.2-0.4 3.7 0 5.6 2.1 2 2.1 2 6.5v7.9q0 1.3 0.2 1.8 0.3 0.6 0.6 0.6h-5.6q0.2 0 0.5-0.6 0.3-0.5 0.3-1.8v-7.8q0-2.3-0.6-3.6-0.6-1.3-1.7-1.8-1-0.6-2.4-0.6-1.5 0-2.9 0.7-1.3 0.6-2.2 2-0.9 1.4-0.9 3.7v7.4q0 1.3 0.3 1.8 0.2 0.6 0.5 0.6zm29.5 0.4q-4.3 0-6-1.6-1.8-1.6-1.8-4.2 0-1.9 1-3.2 0.9-1.3 2.8-2 1.8-0.7 4.7-0.7 2.1 0 3.6 0.3 1.5 0.3 2.5 0.7 1 0.4 1.4 0.6 0-2.3-0.6-3.7-0.6-1.4-1.9-2.1-1.2-0.7-3.4-0.7-2.3 0-4.2 0.6-1.8 0.5-2.9 1.1-1.1 0.6-1.4 0.9v-0.8l-0.4-2.9q0.4-0.2 1.5-0.6 1.2-0.4 3.2-0.7 1.9-0.3 4.5-0.3 3.3 0 5.5 0.9 2.1 0.9 3.1 2.9 1 1.9 1 4.8v7.9q0 1.1 0.2 1.6 0.3 0.5 0.6 0.8h-4.8v-1.2-0.8q-0.7 0.6-1.5 1-0.9 0.5-1.9 0.8-1.1 0.3-2.3 0.4-1.2 0.2-2.5 0.2zm1.3-2.8q2.2 0 3.7-0.5 1.5-0.4 2.3-1.1 0.9-0.8 0.9-1.7 0-1.2-1.6-2-1.6-0.9-4.9-0.9-3 0-4.2 0.8-1.3 0.8-1.3 2.4 0 1.5 1.2 2.3 1.2 0.7 3.9 0.7zm13.3 2.4q0.3 0 0.6-0.6 0.2-0.5 0.2-1.8v-13.4q0-1.2-0.2-1.8-0.3-0.5-0.6-0.5 1.8 0 3.1-0.3 1.3-0.2 1.8-0.5v2.4l-0.1 0.5 0.1 0.1q0.6-0.8 1.3-1.4 0.7-0.7 1.9-1.2 1.2-0.4 3.1-0.4 3.6 0 5.6 2.1 0.6 0.6 1 1.5 0.5-0.7 1.2-1.5 0.9-0.9 2.4-1.5 1.4-0.6 3.6-0.6 2.4 0 4.1 0.9 1.7 0.9 2.6 2.8 0.9 1.9 0.9 4.9v7.9q0 1.3 0.2 1.8 0.3 0.6 0.6 0.6h-5.6q0.2 0 0.5-0.6 0.3-0.5 0.3-1.8v-7.7q0-2.4-0.6-3.7-0.6-1.3-1.7-1.8-1-0.6-2.4-0.6-2.3 0-3.7 1.5-1.5 1.4-1.5 4.9v7.4q0 1.3 0.3 1.8 0.3 0.6 0.5 0.6h-5.6q0.3 0 0.6-0.6 0.2-0.5 0.2-1.8v-7.7q0-2.4-0.6-3.7-0.6-1.3-1.6-1.8-1.1-0.6-2.5-0.6-1.4 0-2.6 0.7-1.2 0.6-1.9 2-0.6 1.4-0.6 3.7v7.4q0 1.3 0.2 1.8 0.3 0.6 0.6 0.6zm45.9 0.4q-2.1 0-3.6-0.5-1.5-0.6-2.5-1.5l-0.1 0.1 0.1 0.7v0.8h-4.9q0.3 0 0.6-0.6 0.2-0.5 0.2-1.8v-22.5q0-1.3-0.2-1.8-0.3-0.6-0.6-0.6h4.9v9.6l-0.1 0.7 0.1 0.1q0.5-0.5 1.4-1 0.9-0.4 2.1-0.7 1.2-0.3 2.6-0.3 3.7 0 5.9 1.3 2.1 1.2 3 3.4 0.9 2.2 0.9 5 0 2.7-0.9 4.9-0.9 2.1-3 3.4-2.1 1.3-5.9 1.3zm-0.4-2.8q2.5 0 3.8-0.8 1.4-0.8 1.9-2.3 0.5-1.6 0.5-3.7 0-2.2-0.5-3.7-0.6-1.6-1.9-2.4-1.3-0.9-3.8-0.9-2.3 0-3.6 1-1.2 0.9-1.7 2.5-0.4 1.6-0.4 3.5 0 3.1 1.2 4.9 1.2 1.9 4.5 1.9zm21.6 2.8q-3.1 0-5.1-0.8-2-0.7-3.2-2-1.1-1.3-1.6-3-0.4-1.8-0.4-3.8 0-4.5 2.5-7.1 2.6-2.6 7.6-2.6 2.9 0 4.7 0.8 1.8 0.8 2.7 2.1 1 1.3 1.3 2.8 0.3 1.5 0.3 3v1.8q0-0.1-1-0.2-1.1-0.2-3.7-0.2h-10.4q0 3 1.7 4.7 1.8 1.7 5.2 1.7 3 0 4.9-0.8 1.9-0.7 2.6-1.4v0.8l0.4 2.6q-0.9 0.5-3.1 1-2.2 0.6-5.4 0.6zm-4.7-11.8h9.6q0-1-0.4-2.1-0.5-1.1-1.6-1.9-1.1-0.8-3.1-0.8-1.7 0-3 0.6-1.2 0.6-1.9 1.5-0.7 0.9-0.7 1.9 0 0.4 0.2 0.6 0.3 0.2 0.9 0.2zm15.2 11.4q0.3 0 0.5-0.6 0.3-0.5 0.3-1.8v-13.4q0-1.2-0.3-1.8-0.2-0.5-0.5-0.5 1.7 0 3-0.3 1.3-0.2 1.8-0.5v2l-0.1 0.6 0.1 0.1q0.6-0.8 1.5-1.4 0.8-0.6 1.9-1 1.1-0.3 2.5-0.3 1.9 0 3.3 0.5 1.3 0.5 1.9 1.1l-0.8 3.3v1.2q-0.5-0.6-1.4-1.3-1-0.7-2.2-1.2-1.3-0.5-2.6-0.5-1.6 0-2.8 1.3-1.3 1.3-1.3 4.2v7.9q0 1.3 0.3 1.8 0.2 0.6 0.5 0.6zm38.6 0.4h-1.2q-6.8 0-9.8-3.3-3.1-3.2-3.1-9.1 0-3.8 1.4-6.5 1.3-2.7 4.1-4.2 2.8-1.4 7.4-1.4h1.2q4.5 0 7.3 1.4 2.8 1.5 4.1 4.2 1.3 2.7 1.3 6.5 0 5.9-3 9.1-3 3.3-9.7 3.3zm-0.8-3.2h0.4q3 0 4.9-0.9 1.9-0.9 2.8-2.9 0.9-2 0.9-5.4 0-3.4-0.9-5.3-1-2-2.9-2.8-1.9-0.9-4.8-0.9h-0.4q-3 0-4.9 0.9-2 0.9-3 2.8-0.9 2-0.9 5.3 0 3.4 0.9 5.4 1 2 3 2.9 2 0.9 4.9 0.9zm16.3 2.8q0.2 0 0.5-0.6 0.3-0.5 0.3-1.8v-13.4h-3.6v-2.7h4v-0.1q-0.1-0.2-0.5-1.3-0.3-1.2-0.3-2.7 0-3.1 1.7-4.5 1.8-1.4 5-1.4 2.1 0 3.9 0.3 1.7 0.2 2.5 0.5v0.8l0.8 3.1q-0.1-0.2-0.9-0.6-1-0.5-2.6-0.9-1.5-0.4-3.2-0.4-1.7 0-2.4 0.7-0.8 0.8-0.8 2.8v2.5q0 0.9 0.2 1 0.1 0.2 1 0.2h6.7q-0.2 0.4-0.5 1.1-0.3 0.8-0.3 1.6h-6.7v13.4q0 1.3 0.3 1.8 0.2 0.6 0.5 0.6zm14.3-23.8q0 0 0 0.1zm20.2 24.1q-6.8 0-10.2-2.9-3.3-3-3.3-9.3 0-3.7 1.3-6.5 1.4-2.7 4.4-4.3 3-1.5 7.8-1.5 3.8 0 6.3 0.4 2.4 0.4 3.3 0.8v0.8l0.8 3.5q-0.7-0.5-2.2-1-1.5-0.6-3.6-1-2-0.3-4.5-0.3-3.5 0-5.5 1.1-2.1 1.2-2.9 3.3-0.8 2-0.8 4.7 0 2.6 0.8 4.6 0.9 2.1 3.1 3.2 2.3 1.2 6.4 1.2 3.4 0 5.7-0.8 2.3-0.8 3.1-1.6v1.2l0.4 2.4q-0.7 0.7-3.3 1.4-2.5 0.6-7.1 0.6zm21.8 0q-3.9 0-6.2-1.2-2.2-1.3-3.1-3.5-0.9-2.2-0.9-4.9 0-2.8 1-4.9 0.9-2.2 3.1-3.5 2.2-1.3 6.1-1.3 3.9 0 6.2 1.3 2.2 1.3 3.1 3.5 0.9 2.1 0.9 4.9 0 2.7-0.9 4.9-0.8 2.2-3.1 3.5-2.2 1.2-6.2 1.2zm0-2.8q2.5 0 3.8-0.8 1.4-0.8 1.9-2.3 0.5-1.5 0.5-3.7 0-2.2-0.5-3.7-0.6-1.5-1.9-2.4-1.3-0.8-3.8-0.8-2.4 0-3.7 0.8-1.4 0.9-1.9 2.5-0.5 1.5-0.5 3.6 0 2.1 0.5 3.7 0.5 1.5 1.8 2.3 1.4 0.8 3.8 0.8zm11.7 2.4q0.3 0 0.5-0.5 0.3-0.6 0.3-1.9v-13.3q0-1.3-0.3-1.8-0.2-0.5-0.5-0.6 1.7 0 3-0.2 1.3-0.3 1.8-0.6v2.4l-0.1 0.6h0.1q0.6-0.7 1.4-1.4 0.7-0.7 1.9-1.1 1.1-0.5 3-0.5 3.7 0 5.6 2.1 0.7 0.7 1.1 1.6 0.4-0.7 1.2-1.5 0.9-0.9 2.3-1.5 1.5-0.7 3.6-0.7 2.5 0 4.2 1 1.7 0.9 2.6 2.8 0.8 1.9 0.8 4.9v7.8q0 1.3 0.3 1.9 0.3 0.5 0.5 0.5h-5.6q0.3 0 0.5-0.5 0.3-0.6 0.3-1.9v-7.7q0-2.3-0.6-3.6-0.6-1.3-1.6-1.9-1.1-0.5-2.5-0.5-2.3 0-3.7 1.4-1.4 1.5-1.4 4.9v7.4q0 1.3 0.3 1.9 0.2 0.5 0.5 0.5h-5.6q0.3 0 0.5-0.5 0.3-0.6 0.3-1.9v-7.7q0-2.3-0.6-3.6-0.6-1.3-1.7-1.9-1-0.5-2.4-0.5-1.5 0-2.6 0.6-1.2 0.7-1.9 2-0.7 1.4-0.7 3.8v7.3q0 1.3 0.3 1.9 0.2 0.5 0.5 0.5zm35 0q0.3 0 0.5-0.5 0.3-0.6 0.3-1.9v-13.3q0-1.3-0.3-1.8-0.2-0.5-0.5-0.6 1.7 0 3-0.2 1.3-0.3 1.8-0.6v2.4l-0.1 0.6h0.1q0.6-0.7 1.3-1.4 0.8-0.7 2-1.1 1.1-0.5 3-0.5 3.7 0 5.6 2.1 0.7 0.7 1.1 1.6 0.4-0.8 1.2-1.5 0.9-0.9 2.3-1.5 1.5-0.7 3.6-0.7 2.5 0 4.2 1 1.7 0.9 2.6 2.8 0.8 1.9 0.8 4.9v7.8q0 1.3 0.3 1.9 0.2 0.5 0.5 0.5h-5.6q0.3 0 0.5-0.5 0.3-0.6 0.3-1.9v-7.7q0-2.3-0.6-3.6-0.6-1.3-1.6-1.9-1.1-0.5-2.5-0.5-2.3 0-3.7 1.4-1.4 1.5-1.4 4.9v7.4q0 1.3 0.2 1.9 0.3 0.5 0.6 0.5h-5.6q0.2 0 0.5-0.5 0.3-0.6 0.3-1.9v-7.7q0-2.3-0.6-3.6-0.6-1.3-1.7-1.9-1-0.5-2.4-0.5-1.5 0-2.7 0.6-1.1 0.7-1.8 2-0.7 1.4-0.7 3.8v7.3q0 1.3 0.3 1.9 0.2 0.5 0.5 0.5zm44.9 0.4q-3.1 0-5.1-0.7-2-0.7-3.2-2.1-1.1-1.3-1.6-3-0.4-1.7-0.4-3.8 0-4.5 2.5-7.1 2.6-2.6 7.6-2.6 2.9 0 4.7 0.8 1.8 0.8 2.7 2.1 1 1.3 1.3 2.8 0.3 1.6 0.3 3v1.9q0-0.1-1-0.3-1.1-0.1-3.7-0.1h-10.4q0 2.9 1.7 4.6 1.8 1.7 5.2 1.7 3 0 4.9-0.7 1.9-0.8 2.6-1.5v0.8l0.4 2.6q-0.9 0.6-3.1 1.1-2.2 0.5-5.4 0.5zm-4.7-11.7h9.6q0-1.1-0.4-2.2-0.5-1.1-1.6-1.8-1.1-0.8-3.1-0.8-1.7 0-3 0.6-1.2 0.5-1.9 1.5-0.7 0.9-0.7 1.9 0 0.4 0.2 0.6 0.3 0.2 0.9 0.2zm15.2 11.3q0.3 0 0.5-0.5 0.3-0.6 0.3-1.9v-13.3q0-1.3-0.3-1.8-0.2-0.5-0.5-0.6 1.8 0 3-0.2 1.3-0.3 1.8-0.6v2 0.7q0.6-0.7 1.5-1.3 0.8-0.7 1.9-1 1.1-0.4 2.6-0.4 1.8 0 3.2 0.6 1.4 0.5 1.9 1l-0.7 3.4v1.2q-0.6-0.7-1.5-1.4-1-0.7-2.2-1.1-1.3-0.5-2.6-0.5-1.6 0-2.8 1.3-1.3 1.2-1.3 4.1v7.9q0 1.3 0.3 1.9 0.3 0.5 0.5 0.5zm27.1 0.4q-4.1 0-6.5-1.2-2.3-1.3-3.3-3.5-0.9-2.2-0.9-4.9 0-4.8 2.6-7.2 2.6-2.4 7.7-2.4 3.1 0 5.2 0.4 2.1 0.4 2.9 0.7v0.8l0.8 3.4q-0.8-0.8-3-1.7-2.3-0.9-5.6-0.9-1.7 0-3.2 0.6-1.6 0.6-2.5 2.1-0.9 1.5-0.9 4.2 0 2.7 1 4.2 1 1.5 2.7 2.1 1.7 0.5 4 0.5 2.8 0 4.6-0.9 1.8-0.8 2.5-1.7v0.8l0.4 2.7q-0.8 0.7-3 1.3-2.2 0.6-5.5 0.6zm20.1 0q-3.2 0-5.2-0.7-2-0.7-3.1-2.1-1.2-1.3-1.6-3-0.5-1.7-0.5-3.8 0-4.5 2.5-7.1 2.6-2.6 7.6-2.6 2.9 0 4.7 0.8 1.8 0.8 2.8 2.1 0.9 1.3 1.2 2.8 0.4 1.6 0.4 3v1.9q0-0.1-1.1-0.3-1.1-0.1-3.7-0.1h-10.4q0 2.9 1.8 4.6 1.7 1.7 5.1 1.7 3 0 4.9-0.7 2-0.8 2.6-1.5v0.8l0.4 2.6q-0.9 0.6-3.1 1.1-2.2 0.5-5.3 0.5zm-4.8-11.7h9.6q0-1.1-0.4-2.2-0.5-1.1-1.6-1.8-1.1-0.8-3.1-0.8-1.7 0-2.9 0.6-1.3 0.5-2 1.5-0.7 0.9-0.7 1.9 0 0.4 0.2 0.6 0.3 0.2 0.9 0.2z"/>
		</g>
	</g>
</svg>